<svg width="79" height="79" viewBox="0 0 79 79" fill="none" xmlns="http://www.w3.org/2000/svg">
<g filter="url(#filter0_d_7639_13808)">
<circle cx="39.5" cy="39.5" r="29.5" fill="black"/>
<mask id="mask0_7639_13808" style="mask-type:luminance" maskUnits="userSpaceOnUse" x="23" y="21" width="33" height="35">
<path fill-rule="evenodd" clip-rule="evenodd" d="M23.1665 21.5837H55.6245V55.6333H23.1665V21.5837Z" fill="white"/>
</mask>
<g mask="url(#mask0_7639_13808)">
<path fill-rule="evenodd" clip-rule="evenodd" d="M41.7179 44.2113C43.6243 44.2113 45.1759 45.7519 45.1759 47.6456V52.5159C45.1759 52.9228 45.5021 53.249 45.9201 53.2585H48.9379C51.3161 53.2585 53.2493 51.349 53.2493 49.0025V35.1895C53.2383 34.382 52.8535 33.622 52.1933 33.1169L41.7543 24.7917C40.3531 23.6818 38.3929 23.6818 36.9869 24.7949L26.6193 33.1137C25.9337 33.6346 25.5489 34.3946 25.541 35.2164V49.0025C25.541 51.349 27.4743 53.2585 29.8524 53.2585H32.8988C33.3278 53.2585 33.6762 52.9181 33.6762 52.5001C33.6762 52.4082 33.6873 52.3164 33.7063 52.2293V47.6456C33.7063 45.763 35.2484 44.224 37.1405 44.2113H41.7179ZM48.9379 55.6335H45.8916C44.1468 55.5923 42.8009 54.2227 42.8009 52.5159V47.6456C42.8009 47.0613 42.3148 46.5863 41.7179 46.5863H37.1484C36.5642 46.5895 36.0813 47.0661 36.0813 47.6456V52.5001C36.0813 52.6188 36.0654 52.7328 36.0322 52.8405C35.8612 54.408 34.5217 55.6335 32.8988 55.6335H29.8524C26.1648 55.6335 23.166 52.6584 23.166 49.0025V35.2053C23.1818 33.6315 23.907 32.1906 25.1594 31.2422L35.5065 22.9376C37.7849 21.1326 40.9595 21.1326 43.2332 22.9345L53.6547 31.247C54.8786 32.1796 55.6038 33.6172 55.6243 35.1721V49.0025C55.6243 52.6584 52.6255 55.6335 48.9379 55.6335Z" fill="#F9F4F4"/>
</g>
</g>
<defs>
<filter id="filter0_d_7639_13808" x="0" y="0" width="79" height="79" filterUnits="userSpaceOnUse" color-interpolation-filters="sRGB">
<feFlood flood-opacity="0" result="BackgroundImageFix"/>
<feColorMatrix in="SourceAlpha" type="matrix" values="0 0 0 0 0 0 0 0 0 0 0 0 0 0 0 0 0 0 127 0" result="hardAlpha"/>
<feOffset/>
<feGaussianBlur stdDeviation="5"/>
<feComposite in2="hardAlpha" operator="out"/>
<feColorMatrix type="matrix" values="0 0 0 0 0.00392157 0 0 0 0 0.917647 0 0 0 0 0.00392157 0 0 0 1 0"/>
<feBlend mode="normal" in2="BackgroundImageFix" result="effect1_dropShadow_7639_13808"/>
<feBlend mode="normal" in="SourceGraphic" in2="effect1_dropShadow_7639_13808" result="shape"/>
</filter>
</defs>
</svg>
