<svg width="393" height="144" viewBox="0 0 393 144" fill="none" xmlns="http://www.w3.org/2000/svg">
<g filter="url(#filter0_d_7893_5385)">
<path d="M0 40H98.75H142.614C146.156 40 149.566 41.3424 152.157 43.7566L175.005 65.0429C187.678 76.8494 207.322 76.8494 219.995 65.0429L242.843 43.7566C245.434 41.3424 248.844 40 252.386 40H296.25H395V122C395 134.15 385.15 144 373 144H22C9.84973 144 0 134.15 0 122V40Z" fill="black"/>
</g>
<path fill-rule="evenodd" clip-rule="evenodd" d="M114.019 77.2166L114.974 88.5723C115.043 89.4463 115.757 90.1018 116.63 90.1018H116.636H133.912H133.915C134.74 90.1018 135.444 89.4874 135.562 88.672L137.066 78.2869C137.101 78.0399 137.039 77.7929 136.888 77.5934C136.74 77.3924 136.521 77.2625 136.274 77.2277C135.943 77.2404 122.211 77.2214 114.019 77.2166V77.2166ZM116.627 92.4768C114.541 92.4768 112.776 90.8491 112.606 88.767L111.156 71.5182L108.77 71.1065C108.122 70.9925 107.69 70.3798 107.801 69.7322C107.915 69.0846 108.54 68.6634 109.174 68.7648L112.467 69.3348C112.998 69.4282 113.401 69.8684 113.447 70.4067L113.819 74.8416C136.423 74.8511 136.496 74.8622 136.605 74.8749C137.487 75.0031 138.263 75.4639 138.792 76.1732C139.32 76.8809 139.542 77.7534 139.415 78.6274L137.913 89.0109C137.629 90.9869 135.913 92.4768 133.918 92.4768H133.91H116.639H116.627Z" fill="#F9F4F4"/>
<path fill-rule="evenodd" clip-rule="evenodd" d="M131.372 83.0691H126.983C126.326 83.0691 125.795 82.5371 125.795 81.8816C125.795 81.2261 126.326 80.6941 126.983 80.6941H131.372C132.027 80.6941 132.559 81.2261 132.559 81.8816C132.559 82.5371 132.027 83.0691 131.372 83.0691" fill="#F9F4F4"/>
<path fill-rule="evenodd" clip-rule="evenodd" d="M115.945 96.7778C116.422 96.7778 116.807 97.1626 116.807 97.6392C116.807 98.1157 116.422 98.5021 115.945 98.5021C115.467 98.5021 115.083 98.1157 115.083 97.6392C115.083 97.1626 115.467 96.7778 115.945 96.7778" fill="#F9F4F4"/>
<mask id="mask0_7893_5385" style="mask-type:luminance" maskUnits="userSpaceOnUse" x="115" y="96" width="2" height="3">
<path fill-rule="evenodd" clip-rule="evenodd" d="M115.082 97.6387C115.082 98.1168 115.466 98.5032 115.946 98.5032V98.5032C116.423 98.5032 116.807 98.1168 116.807 97.6387V97.6387C116.807 97.1621 116.423 96.7773 115.946 96.7773V96.7773C115.466 96.7773 115.082 97.1621 115.082 97.6387V97.6387Z" fill="white"/>
</mask>
<g mask="url(#mask0_7893_5385)">
<path fill-rule="evenodd" clip-rule="evenodd" d="M107.167 106.418H124.724V88.8606H107.167V106.418Z" fill="#F9F4F4"/>
</g>
<path fill-rule="evenodd" clip-rule="evenodd" d="M115.944 97.3146C115.765 97.3146 115.619 97.4603 115.619 97.6392C115.619 97.9986 116.27 97.9986 116.27 97.6392C116.27 97.4603 116.123 97.3146 115.944 97.3146M115.944 99.6896C114.813 99.6896 113.895 98.7697 113.895 97.6392C113.895 96.5087 114.813 95.5903 115.944 95.5903C117.074 95.5903 117.994 96.5087 117.994 97.6392C117.994 98.7697 117.074 99.6896 115.944 99.6896" fill="#F9F4F4"/>
<path fill-rule="evenodd" clip-rule="evenodd" d="M133.806 96.7781C134.282 96.7781 134.669 97.1628 134.669 97.6394C134.669 98.116 134.282 98.5023 133.806 98.5023C133.328 98.5023 132.943 98.116 132.943 97.6394C132.943 97.1628 133.328 96.7781 133.806 96.7781" fill="#F9F4F4"/>
<mask id="mask1_7893_5385" style="mask-type:luminance" maskUnits="userSpaceOnUse" x="132" y="96" width="3" height="3">
<path fill-rule="evenodd" clip-rule="evenodd" d="M132.943 97.6387C132.943 98.1168 133.328 98.5032 133.806 98.5032V98.5032C134.281 98.5032 134.669 98.1168 134.669 97.6387V97.6387C134.669 97.1621 134.281 96.7773 133.806 96.7773V96.7773C133.328 96.7773 132.943 97.1621 132.943 97.6387V97.6387Z" fill="white"/>
</mask>
<g mask="url(#mask1_7893_5385)">
<path fill-rule="evenodd" clip-rule="evenodd" d="M125.027 106.418H142.586V88.8606H125.027V106.418Z" fill="#F9F4F4"/>
</g>
<path fill-rule="evenodd" clip-rule="evenodd" d="M133.804 97.3146C133.627 97.3146 133.481 97.4602 133.481 97.6392C133.483 98.0017 134.132 97.9986 134.13 97.6392C134.13 97.4602 133.983 97.3146 133.804 97.3146M133.804 99.6896C132.674 99.6896 131.755 98.7697 131.755 97.6392C131.755 96.5087 132.674 95.5903 133.804 95.5903C134.936 95.5903 135.856 96.5087 135.856 97.6392C135.856 98.7697 134.936 99.6896 133.804 99.6896" fill="#F9F4F4"/>
<rect x="121" y="124" width="145" height="6" rx="2" fill="#01EA01"/>
<g filter="url(#filter1_d_7893_5385)">
<circle cx="197.5" cy="39.5" r="29.5" fill="black"/>
<mask id="mask2_7893_5385" style="mask-type:luminance" maskUnits="userSpaceOnUse" x="181" y="21" width="33" height="35">
<path fill-rule="evenodd" clip-rule="evenodd" d="M181.167 21.5837H213.625V55.6333H181.167V21.5837Z" fill="white"/>
</mask>
<g mask="url(#mask2_7893_5385)">
<path fill-rule="evenodd" clip-rule="evenodd" d="M199.718 44.2113C201.624 44.2113 203.176 45.7519 203.176 47.6456V52.5159C203.176 52.9228 203.502 53.249 203.92 53.2585H206.938C209.316 53.2585 211.249 51.349 211.249 49.0025V35.1895C211.238 34.382 210.854 33.622 210.193 33.1169L199.754 24.7917C198.353 23.6818 196.393 23.6818 194.987 24.7949L184.619 33.1137C183.934 33.6346 183.549 34.3946 183.541 35.2164V49.0025C183.541 51.349 185.474 53.2585 187.852 53.2585H190.899C191.328 53.2585 191.676 52.9181 191.676 52.5001C191.676 52.4082 191.687 52.3164 191.706 52.2293V47.6456C191.706 45.763 193.248 44.224 195.141 44.2113H199.718ZM206.938 55.6335H203.892C202.147 55.5923 200.801 54.2227 200.801 52.5159V47.6456C200.801 47.0613 200.315 46.5863 199.718 46.5863H195.148C194.564 46.5895 194.081 47.0661 194.081 47.6456V52.5001C194.081 52.6188 194.065 52.7328 194.032 52.8405C193.861 54.408 192.522 55.6335 190.899 55.6335H187.852C184.165 55.6335 181.166 52.6584 181.166 49.0025V35.2053C181.182 33.6315 181.907 32.1906 183.159 31.2422L193.507 22.9376C195.785 21.1326 198.96 21.1326 201.233 22.9345L211.655 31.247C212.879 32.1796 213.604 33.6172 213.624 35.1721V49.0025C213.624 52.6584 210.626 55.6335 206.938 55.6335V55.6335Z" fill="#F9F4F4"/>
</g>
</g>
<mask id="mask3_7893_5385" style="mask-type:luminance" maskUnits="userSpaceOnUse" x="254" y="68" width="32" height="30">
<path fill-rule="evenodd" clip-rule="evenodd" d="M254.167 68.75H285.855V97.5437H254.167V68.75Z" fill="white"/>
</mask>
<g mask="url(#mask3_7893_5385)">
<path fill-rule="evenodd" clip-rule="evenodd" d="M270.02 71.125C269.266 71.125 268.595 71.5145 268.218 72.1684L256.821 92.063C256.451 92.7122 256.454 93.4864 256.829 94.134C257.204 94.7816 257.876 95.1695 258.625 95.1695H281.398C282.145 95.1695 282.816 94.7816 283.192 94.134C283.569 93.4864 283.572 92.7122 283.198 92.063L271.822 72.1684C271.447 71.5145 270.775 71.125 270.02 71.125M281.398 97.5445H258.625C257.019 97.5445 255.58 96.7148 254.774 95.3247C253.968 93.9361 253.963 92.2752 254.76 90.8834L266.16 70.9873C266.961 69.586 268.403 68.75 270.02 68.75H270.022C271.637 68.75 273.082 69.5876 273.883 70.9904L285.261 90.8834C286.058 92.2752 286.053 93.9361 285.247 95.3247C284.441 96.7148 283.002 97.5445 281.398 97.5445" fill="#F9F4F4"/>
</g>
<path fill-rule="evenodd" clip-rule="evenodd" d="M270.006 86.4264C269.35 86.4264 268.818 85.8944 268.818 85.2389V80.3306C268.818 79.6751 269.35 79.1431 270.006 79.1431C270.661 79.1431 271.193 79.6751 271.193 80.3306V85.2389C271.193 85.8944 270.661 86.4264 270.006 86.4264" fill="#F9F4F4"/>
<path fill-rule="evenodd" clip-rule="evenodd" d="M270.009 91.7067C269.134 91.7067 268.418 90.999 268.418 90.1234C268.418 89.2478 269.119 88.54 269.993 88.54H270.009C270.885 88.54 271.593 89.2478 271.593 90.1234C271.593 90.999 270.885 91.7067 270.009 91.7067" fill="#F9F4F4"/>
<path fill-rule="evenodd" clip-rule="evenodd" d="M50.3968 79.4585C48.8689 79.4585 47.626 80.7014 47.626 82.2309C47.626 83.7588 48.8689 85.0002 50.3968 85.0002C51.9247 85.0002 53.1676 83.7588 53.1676 82.2309C53.1676 80.7014 51.9247 79.4585 50.3968 79.4585M50.3968 87.3752C47.5595 87.3752 45.251 85.0682 45.251 82.2309C45.251 79.392 47.5595 77.0835 50.3968 77.0835C53.2341 77.0835 55.5426 79.392 55.5426 82.2309C55.5426 85.0682 53.2341 87.3752 50.3968 87.3752" fill="#01EA01"/>
<mask id="mask4_7893_5385" style="mask-type:luminance" maskUnits="userSpaceOnUse" x="37" y="69" width="27" height="32">
<path fill-rule="evenodd" clip-rule="evenodd" d="M37.3335 69.1667H63.4577V100.042H37.3335V69.1667Z" fill="white"/>
</mask>
<g mask="url(#mask4_7893_5385)">
<path fill-rule="evenodd" clip-rule="evenodd" d="M50.395 71.5417C44.5019 71.5417 39.7075 76.382 39.7075 82.329C39.7075 89.8957 48.6122 97.2677 50.395 97.6604C52.1779 97.2662 61.0825 89.8942 61.0825 82.329C61.0825 76.382 56.2882 71.5417 50.395 71.5417V71.5417ZM50.395 100.042C47.5545 100.042 37.3325 91.2511 37.3325 82.329C37.3325 75.071 43.1924 69.1667 50.395 69.1667C57.5976 69.1667 63.4575 75.071 63.4575 82.329C63.4575 91.2511 53.2355 100.042 50.395 100.042V100.042Z" fill="#01EA01"/>
</g>
<mask id="mask5_7893_5385" style="mask-type:luminance" maskUnits="userSpaceOnUse" x="338" y="67" width="31" height="33">
<path fill-rule="evenodd" clip-rule="evenodd" d="M338.167 67.1675H368.701V99.9757H338.167V67.1675Z" fill="white"/>
</mask>
<g mask="url(#mask5_7893_5385)">
<path fill-rule="evenodd" clip-rule="evenodd" d="M346.404 91.6141C346.766 91.6141 347.129 91.6601 347.483 91.7551C348.554 92.0432 349.483 92.7589 350.034 93.72C350.392 94.3232 350.59 95.0278 350.596 95.7466C350.596 96.7758 351.423 97.6007 352.439 97.6007H354.423C355.435 97.6007 356.261 96.7806 356.266 95.7688C356.26 94.651 356.697 93.5886 357.496 92.789C358.285 92.0005 359.387 91.5271 360.489 91.5587C361.211 91.5761 361.906 91.7709 362.519 92.1192C363.401 92.6243 364.526 92.3235 365.036 91.4526L366.088 89.6999C366.322 89.2961 366.39 88.7895 366.265 88.3224C366.141 87.8553 365.831 87.45 365.413 87.2109C364.435 86.6472 363.736 85.7384 363.447 84.6491C363.16 83.5803 363.317 82.4134 363.876 81.4523C364.24 80.819 364.773 80.2854 365.413 79.9181C366.271 79.4161 366.572 78.2936 366.073 77.4196C366.053 77.3847 366.034 77.3483 366.018 77.3103L365.09 75.7016C364.585 74.8229 363.461 74.5205 362.579 75.0224C361.626 75.5861 360.492 75.7476 359.403 75.461C358.315 75.1791 357.403 74.4904 356.835 73.5182C356.47 72.9102 356.272 72.2025 356.266 71.4821C356.28 70.9406 356.09 70.4545 355.745 70.0982C355.402 69.7436 354.919 69.5425 354.423 69.5425H352.439C351.948 69.5425 351.489 69.7341 351.142 70.0792C350.797 70.426 350.609 70.8867 350.612 71.3776C350.579 73.6924 348.687 75.556 346.396 75.556C345.661 75.5481 344.953 75.3501 344.339 74.9828C343.476 74.492 342.349 74.7944 341.844 75.6731L340.772 77.4354C340.281 78.2872 340.582 79.413 341.456 79.9212C342.752 80.6717 343.561 82.0714 343.561 83.5724C343.561 85.0734 342.752 86.4715 341.452 87.2236C340.583 87.7271 340.282 88.8465 340.786 89.7173L341.785 91.44C342.032 91.8849 342.436 92.2063 342.903 92.3377C343.368 92.4676 343.881 92.4121 344.309 92.1746C344.937 91.8057 345.669 91.6141 346.404 91.6141M354.423 99.9757H352.439C350.113 99.9757 348.221 98.0852 348.221 95.7593C348.218 95.4727 348.136 95.1751 347.982 94.917C347.734 94.4831 347.331 94.1728 346.867 94.0493C346.407 93.9258 345.902 93.9939 345.487 94.2346C344.492 94.7887 343.322 94.9233 342.252 94.6225C341.183 94.3201 340.26 93.5854 339.719 92.6116L338.729 90.9064C337.572 88.8987 338.26 86.3258 340.265 85.1668C340.833 84.8391 341.186 84.2279 341.186 83.5724C341.186 82.9169 340.833 82.3041 340.265 81.9764C338.259 80.8111 337.572 78.2318 338.728 76.2241L339.801 74.4619C340.943 72.4764 343.523 71.7766 345.536 72.9324C345.81 73.0955 346.107 73.1778 346.41 73.181C347.396 73.181 348.221 72.3671 348.237 71.3665C348.231 70.2629 348.666 69.2036 349.459 68.4041C350.256 67.6061 351.313 67.1675 352.439 67.1675H354.423C355.557 67.1675 356.659 67.633 357.449 68.4421C358.237 69.2559 358.673 70.3721 358.64 71.5042C358.643 71.7591 358.727 72.0536 358.879 72.3117C359.13 72.7392 359.528 73.0401 360 73.1636C360.471 73.2807 360.965 73.2174 361.385 72.9688C363.412 71.8114 365.991 72.5049 367.148 74.5157L368.135 76.2241C368.16 76.2701 368.182 76.3144 368.201 76.3603C369.249 78.3411 368.55 80.8348 366.602 81.9732C366.319 82.1363 366.089 82.3643 365.931 82.6398C365.685 83.0657 365.617 83.5724 365.741 84.0379C365.867 84.5129 366.17 84.9071 366.596 85.151C367.557 85.7036 368.274 86.6346 368.561 87.7096C368.847 88.7831 368.691 89.9485 368.132 90.9096L367.08 92.6607C365.923 94.6494 363.344 95.3381 361.338 94.1791C361.07 94.0256 360.761 93.9416 360.454 93.9337H360.445C359.987 93.9337 359.517 94.1285 359.175 94.4689C358.828 94.8156 358.638 95.278 358.641 95.7688C358.63 98.0947 356.738 99.9757 354.423 99.9757" fill="#F9F4F4"/>
</g>
<path fill-rule="evenodd" clip-rule="evenodd" d="M353.438 80.5847C351.791 80.5847 350.452 81.9258 350.452 83.5725C350.452 85.2191 351.791 86.5571 353.438 86.5571C355.084 86.5571 356.424 85.2191 356.424 83.5725C356.424 81.9258 355.084 80.5847 353.438 80.5847M353.438 88.9321C350.482 88.9321 348.077 86.5286 348.077 83.5725C348.077 80.6164 350.482 78.2097 353.438 78.2097C356.394 78.2097 358.799 80.6164 358.799 83.5725C358.799 86.5286 356.394 88.9321 353.438 88.9321" fill="#F9F4F4"/>
<defs>
<filter id="filter0_d_7893_5385" x="-4" y="32" width="403" height="112" filterUnits="userSpaceOnUse" color-interpolation-filters="sRGB">
<feFlood flood-opacity="0" result="BackgroundImageFix"/>
<feColorMatrix in="SourceAlpha" type="matrix" values="0 0 0 0 0 0 0 0 0 0 0 0 0 0 0 0 0 0 127 0" result="hardAlpha"/>
<feOffset dy="-4"/>
<feGaussianBlur stdDeviation="2"/>
<feComposite in2="hardAlpha" operator="out"/>
<feColorMatrix type="matrix" values="0 0 0 0 0.00392157 0 0 0 0 0.917647 0 0 0 0 0.00392157 0 0 0 1 0"/>
<feBlend mode="normal" in2="BackgroundImageFix" result="effect1_dropShadow_7893_5385"/>
<feBlend mode="normal" in="SourceGraphic" in2="effect1_dropShadow_7893_5385" result="shape"/>
</filter>
<filter id="filter1_d_7893_5385" x="158" y="0" width="79" height="79" filterUnits="userSpaceOnUse" color-interpolation-filters="sRGB">
<feFlood flood-opacity="0" result="BackgroundImageFix"/>
<feColorMatrix in="SourceAlpha" type="matrix" values="0 0 0 0 0 0 0 0 0 0 0 0 0 0 0 0 0 0 127 0" result="hardAlpha"/>
<feOffset/>
<feGaussianBlur stdDeviation="5"/>
<feComposite in2="hardAlpha" operator="out"/>
<feColorMatrix type="matrix" values="0 0 0 0 0.00392157 0 0 0 0 0.917647 0 0 0 0 0.00392157 0 0 0 1 0"/>
<feBlend mode="normal" in2="BackgroundImageFix" result="effect1_dropShadow_7893_5385"/>
<feBlend mode="normal" in="SourceGraphic" in2="effect1_dropShadow_7893_5385" result="shape"/>
</filter>
</defs>
</svg>
