<svg width="127" height="26" viewBox="0 0 127 26" fill="none" xmlns="http://www.w3.org/2000/svg">
<path d="M21.0362 0.974999C22.8032 0.974999 24.4772 2.122 24.2912 3.982L22.4312 21.218C22.1832 23.45 21.4082 25.465 18.0912 25.465C16.0142 25.465 14.8982 23.853 14.8982 22.272C14.8982 21.28 15.1462 20.133 16.6032 18.769L19.4862 16.041C20.1682 15.421 20.4162 14.708 20.4162 14.212C20.4162 13.344 19.3002 13.282 18.2462 13.53L6.46618 15.855C5.10218 16.134 4.85418 16.475 4.85418 16.94C4.85418 17.684 5.69118 18.242 6.46618 19.079C7.45818 20.164 7.98518 21.28 7.98518 22.272C7.98518 24.07 6.18718 25.465 4.32718 25.465C2.56018 25.465 0.886176 24.38 1.19618 21.435L2.83918 6.152C3.08718 3.92 3.95518 0.974999 7.27218 0.974999C9.38018 0.974999 10.5892 2.153 10.5892 3.827C10.5892 5.222 9.81418 6.4 8.72918 7.02L5.19518 9.035C4.26518 9.562 4.11018 10.027 4.11018 10.616C4.11018 11.453 4.85418 11.887 5.90818 11.887H19.0832C20.3542 11.887 21.0362 11.577 21.2222 10.678C21.4392 9.655 20.8192 9.283 20.2302 8.632L18.8972 7.113C17.9362 5.997 17.3782 5.005 17.3782 4.044C17.3782 2.339 18.5252 0.974999 21.0362 0.974999ZM33.3497 4.726C31.5517 4.571 30.7457 5.408 30.7457 6.276C30.7457 7.175 31.4587 7.795 33.3497 8.043L44.4477 9.407C46.8037 9.686 47.6097 11.112 47.6097 12.6C47.6097 13.747 47.1757 15.204 44.4477 16.072L32.3577 19.916C30.9007 20.381 30.6527 21.001 30.6527 21.776C30.6527 22.458 31.4897 23.729 33.0087 23.202L45.6877 18.769C48.3537 17.839 49.7487 18.583 49.8417 20.443C49.9347 22.21 49.0667 23.202 47.4237 23.977C45.6257 24.814 40.9757 25.527 36.8217 25.496C32.6987 25.496 28.9787 24.566 28.9787 21.466C28.9787 20.319 29.7537 19.203 31.1487 18.211L40.3867 11.794C41.6267 10.926 41.0067 9.779 39.5807 10.368L33.3807 12.91C30.3427 14.15 27.7077 12.662 27.7077 9.841C27.7077 4.199 34.4657 1.006 42.4017 1.006C47.9507 1.006 49.8417 2.277 49.8417 4.23C49.8417 5.222 49.3147 6.152 46.9897 5.935L33.3497 4.726ZM76.5741 21.559C76.5741 23.512 75.5201 25.465 72.2961 25.465C71.0561 25.465 69.4131 24.876 67.7081 22.799L60.0511 13.53C59.3691 12.662 59.0591 12.011 59.0591 11.577C59.0901 10.771 59.7101 10.554 60.8571 10.709L70.2811 11.918C73.5981 12.352 74.6831 10.864 74.6831 9.252C74.6831 7.733 73.5051 6.555 71.2421 6.555H61.5391C58.3461 6.555 56.6101 8.446 56.6101 10.647C56.6101 11.236 56.7651 11.856 57.0131 12.445L60.1751 19.885C61.3841 22.737 61.0121 25.465 57.4781 25.465C55.5561 25.465 53.4171 23.977 53.4171 19.544C53.4171 9.004 57.8501 0.974999 67.2741 0.974999C74.9311 0.974999 76.7601 5.811 76.7601 8.601C76.7601 10.709 75.9851 12.6 71.6141 14.15L66.5301 15.948C65.7861 16.196 65.1971 16.568 65.1971 17.312C65.1971 18.025 65.6931 18.273 66.8711 18.273L72.9781 18.335C75.0241 18.366 76.5741 19.637 76.5741 21.559ZM90.2228 5.191C90.8428 3.424 90.5328 2.711 89.6958 2.711C89.4168 2.711 89.0758 2.866 88.7658 3.207L85.2938 7.082C82.4418 10.244 77.8538 8.446 77.8538 4.881C77.8538 3.3 78.8768 1.44 82.1008 1.44H92.7028C98.3138 1.44 101.724 4.54 101.724 8.849C101.724 10.771 100.236 12.476 98.2518 12.538C95.4308 12.631 94.5318 10.585 94.5318 6.307V4.943C94.5318 3.579 94.2218 2.556 93.1678 2.556C92.3308 2.556 91.9898 3.362 91.9588 5.315L91.6178 20.474C91.5558 23.76 90.9358 25.465 87.9598 25.465C84.6428 25.465 83.9608 23.078 85.2318 19.699L90.2228 5.191ZM123.475 19.017C125.335 19.668 125.955 21.001 125.955 22.055C125.955 23.667 124.932 25.496 122.824 25.496C121.739 25.496 120.096 24.969 118.825 23.636L112.811 17.374C112.563 17.126 112.067 16.754 111.695 16.754C111.137 16.754 110.796 17.188 110.796 18.645V20.753C110.796 23.078 109.711 25.434 107.479 25.434C105.247 25.434 103.697 24.101 103.697 22.365C103.697 21.435 104.1 20.412 105.123 19.389L120.158 4.416C121.088 3.486 120.034 2.029 118.825 2.773L110.827 7.547C109.339 8.446 107.944 8.911 106.797 8.911C104.999 8.911 103.728 7.764 103.573 5.222C103.387 2.494 105.619 1.44 108.44 1.44H120.158C124.064 1.44 126.141 3.145 126.141 5.222C126.141 7.113 124.374 9.221 120.778 10.74L113.369 13.871C112.253 14.336 112.191 15.607 113.369 15.948L123.475 19.017Z" fill="#01EA01"/>
</svg>
