<svg width="49" height="58" viewBox="0 0 49 58" fill="none" xmlns="http://www.w3.org/2000/svg">
<g filter="url(#filter0_d_7639_13796)">
<path d="M38.9218 37.5141C38.8424 37.6466 38.6439 37.9558 38.2072 37.9558H30.4661V30.9328C30.4661 30.5795 30.2676 30.2703 29.9897 30.1378L24.829 27.4876C24.6305 27.3992 24.3526 27.3992 24.1541 27.4876L18.9934 30.1378C18.7155 30.2703 18.517 30.5795 18.517 30.9328V38H10.8156C10.379 38 10.1805 37.6908 10.1011 37.5583C9.94229 37.2491 9.98199 36.8958 10.1408 36.6307C13.2769 31.5512 13.9518 25.8533 14.1106 23.8215C14.9045 23.6006 15.6191 23.1147 16.1352 22.408C16.81 23.2914 17.8025 23.9098 18.914 23.9098C20.0256 23.9098 21.018 23.3356 21.6929 22.408C22.3677 23.2914 23.3602 23.9098 24.4717 23.9098C25.5833 23.9098 26.5757 23.3356 27.2506 22.408C27.9255 23.2914 28.9179 23.9098 30.0294 23.9098C31.141 23.9098 32.1334 23.3356 32.8083 22.408C33.3244 23.1147 34.0389 23.6006 34.8329 23.8215C34.9917 25.8533 35.6665 31.5512 38.8027 36.6307C39.0409 36.8958 39.0409 37.2491 38.9218 37.5141ZM18.9537 22.0988C20.0653 22.0988 20.9386 21.1271 20.9386 19.8903V19.4486H16.9688V19.8903C16.9688 21.1271 17.8422 22.0988 18.9537 22.0988ZM24.5114 22.0988C25.623 22.0988 26.4963 21.1271 26.4963 19.8903V19.4486H22.5265V19.8903C22.5265 21.1271 23.3999 22.0988 24.5114 22.0988ZM30.0691 22.0988C31.1807 22.0988 32.054 21.1271 32.054 19.8903V19.4486H28.0842V19.8903C28.0842 21.1271 28.9576 22.0988 30.0691 22.0988ZM18.6361 4.34251L23.7175 6.77186V8.49448C23.8366 8.36197 23.916 8.27363 23.916 8.27363C24.0748 8.05278 24.2732 7.96444 24.5114 7.96444C24.7496 7.96444 24.9878 8.09695 25.1069 8.27363C25.1069 8.27363 25.1863 8.36197 25.3054 8.49448V0.897255C25.3054 0.588066 25.1863 0.323046 24.9481 0.146366C24.7099 -0.0303134 24.432 -0.0303135 24.1938 0.0580264L18.6361 2.70822C18.3583 2.84073 18.1598 3.14992 18.1598 3.50328C18.1598 3.85664 18.3583 4.21 18.6361 4.34251ZM24.5114 10.1729C23.2014 11.7631 19.8668 15.3408 15.4206 17.6818H33.5626C29.1561 15.3408 25.8215 11.7631 24.5114 10.1729ZM35.6268 22.0988C36.7384 22.0988 37.6117 21.1271 37.6117 19.8903V19.4486H33.6419V19.8903C33.6419 21.1271 34.5153 22.0988 35.6268 22.0988ZM13.396 22.0988C14.5076 22.0988 15.3809 21.1271 15.3809 19.8903V19.4486H11.4111V19.8903C11.4111 21.1271 12.2845 22.0988 13.396 22.0988ZM20.1447 31.507V38H28.8782V31.507L24.5114 29.2544L20.1447 31.507Z" fill="#01EA01"/>
<path d="M16.1396 23.1738C16.8617 23.9061 17.8261 24.4102 18.9141 24.4102C19.9986 24.4101 20.969 23.9379 21.6992 23.1758C22.421 23.907 23.3847 24.4101 24.4717 24.4102C25.5565 24.4102 26.5265 23.9372 27.2568 23.1748C27.9787 23.9063 28.9421 24.4101 30.0293 24.4102C31.1115 24.4102 32.0799 23.9398 32.8096 23.1807C33.2546 23.6362 33.7855 23.9803 34.3652 24.1953C34.5721 26.4934 35.3372 31.97 38.377 36.8936L38.4004 36.9316L38.4307 36.9648C38.5025 37.0448 38.5189 37.165 38.4717 37.2871C38.4446 37.3294 38.4175 37.3683 38.3809 37.3984C38.3444 37.4284 38.2951 37.4561 38.207 37.4561H30.9658V30.9326C30.9657 30.4028 30.6717 29.9164 30.2168 29.6934H30.2178L30.21 29.6895C30.2083 29.6886 30.2068 29.6873 30.2051 29.6865H30.2041L25.0576 27.043L25.0449 27.0361L25.0322 27.0303L24.9053 26.9824C24.5998 26.8867 24.238 26.9028 23.9512 27.0303L23.9385 27.0361L23.9258 27.043L18.7646 29.6934C18.3105 29.9167 18.0167 30.4033 18.0166 30.9326V37.5H10.8154C10.7275 37.5 10.678 37.4723 10.6416 37.4424C10.6007 37.4086 10.5699 37.3649 10.54 37.3164C10.4783 37.1845 10.4903 37.0246 10.5664 36.8936C13.6062 31.9701 14.3702 26.4935 14.5771 24.1953C15.1599 23.9793 15.6932 23.6328 16.1396 23.1738ZM28.3779 31.8105V37.5H20.6445V31.8115L24.5107 29.8154L28.3779 31.8105ZM14.8789 19.9482C14.8528 20.9287 14.1677 21.5984 13.3965 21.5986C12.6251 21.5986 11.9392 20.9289 11.9131 19.9482H14.8789ZM20.4365 19.9482C20.4104 20.9288 19.7254 21.5984 18.9541 21.5986C18.1827 21.5986 17.4968 20.9289 17.4707 19.9482H20.4365ZM25.9941 19.9482C25.9681 20.9288 25.283 21.5985 24.5117 21.5986C23.7403 21.5986 23.0544 20.9289 23.0283 19.9482H25.9941ZM31.5518 19.9482C31.5257 20.9288 30.8407 21.5985 30.0693 21.5986C29.2979 21.5986 28.612 20.9289 28.5859 19.9482H31.5518ZM37.1094 19.9482C37.0833 20.9289 36.3983 21.5986 35.627 21.5986C34.8555 21.5986 34.1706 20.9289 34.1445 19.9482H37.1094ZM24.5107 10.9453C25.8334 12.4747 28.3875 15.0914 31.7061 17.1816H17.29C20.6322 15.0917 23.1877 12.4748 24.5107 10.9453ZM24.2178 6.45703L23.9336 6.32031L18.8516 3.8916C18.7805 3.85771 18.6602 3.70276 18.6602 3.50293C18.6603 3.37396 18.7151 3.27058 18.7822 3.20801L18.8516 3.15918L24.3818 0.522461C24.4965 0.483451 24.5831 0.497923 24.6504 0.547852C24.7452 0.618191 24.8057 0.725284 24.8057 0.897461V7.50195C24.71 7.47759 24.6111 7.46487 24.5117 7.46484C24.4109 7.46484 24.3124 7.47525 24.2178 7.49707V6.45703Z" stroke="black"/>
</g>
<defs>
<filter id="filter0_d_7639_13796" x="0" y="0" width="49" height="58" filterUnits="userSpaceOnUse" color-interpolation-filters="sRGB">
<feFlood flood-opacity="0" result="BackgroundImageFix"/>
<feColorMatrix in="SourceAlpha" type="matrix" values="0 0 0 0 0 0 0 0 0 0 0 0 0 0 0 0 0 0 127 0" result="hardAlpha"/>
<feOffset dy="10"/>
<feGaussianBlur stdDeviation="5"/>
<feComposite in2="hardAlpha" operator="out"/>
<feColorMatrix type="matrix" values="0 0 0 0 0 0 0 0 0 0 0 0 0 0 0 0 0 0 0.25 0"/>
<feBlend mode="normal" in2="BackgroundImageFix" result="effect1_dropShadow_7639_13796"/>
<feBlend mode="normal" in="SourceGraphic" in2="effect1_dropShadow_7639_13796" result="shape"/>
</filter>
</defs>
</svg>
