<svg width="38" height="38" viewBox="0 0 38 38" fill="none" xmlns="http://www.w3.org/2000/svg">
<path fill-rule="evenodd" clip-rule="evenodd" d="M10.0188 13.2166L10.9735 24.5723C11.0432 25.4463 11.7573 26.1018 12.6297 26.1018H12.636H29.9118H29.9149C30.7399 26.1018 31.4444 25.4874 31.5616 24.672L33.0658 14.2869C33.1006 14.0399 33.0389 13.7929 32.8884 13.5934C32.7396 13.3924 32.5211 13.2625 32.2741 13.2277C31.9432 13.2404 18.2109 13.2214 10.0188 13.2166ZM12.6265 28.4768C10.5413 28.4768 8.77585 26.8491 8.60644 24.767L7.1561 7.51819L4.77002 7.10653C4.12244 6.99253 3.69019 6.37978 3.80102 5.73219C3.91502 5.08461 4.54044 4.66344 5.17377 4.76478L8.4671 5.33478C8.99752 5.42819 9.40127 5.86836 9.44719 6.40669L9.81927 10.8416C32.4229 10.8511 32.4958 10.8622 32.605 10.8749C33.4869 11.0031 34.2628 11.4639 34.7916 12.1732C35.3204 12.8809 35.5421 13.7534 35.4154 14.6274L33.9129 25.0109C33.6294 26.9869 31.9131 28.4768 29.9181 28.4768H29.9102H12.6392H12.6265Z" fill="#F9F4F4"/>
<path fill-rule="evenodd" clip-rule="evenodd" d="M27.3719 19.0691H22.9829C22.3258 19.0691 21.7954 18.5371 21.7954 17.8816C21.7954 17.2261 22.3258 16.6941 22.9829 16.6941H27.3719C28.0274 16.6941 28.5594 17.2261 28.5594 17.8816C28.5594 18.5371 28.0274 19.0691 27.3719 19.0691Z" fill="#F9F4F4"/>
<path fill-rule="evenodd" clip-rule="evenodd" d="M11.9454 32.7778C12.422 32.7778 12.8068 33.1626 12.8068 33.6392C12.8068 34.1157 12.422 34.5021 11.9454 34.5021C11.4673 34.5021 11.0825 34.1157 11.0825 33.6392C11.0825 33.1626 11.4673 32.7778 11.9454 32.7778Z" fill="#F9F4F4"/>
<mask id="mask0_7639_13806" style="mask-type:luminance" maskUnits="userSpaceOnUse" x="11" y="32" width="2" height="3">
<path fill-rule="evenodd" clip-rule="evenodd" d="M11.0815 33.6387C11.0815 34.1168 11.4663 34.5032 11.946 34.5032C12.4226 34.5032 12.8074 34.1168 12.8074 33.6387C12.8074 33.1621 12.4226 32.7773 11.946 32.7773C11.4663 32.7773 11.0815 33.1621 11.0815 33.6387Z" fill="white"/>
</mask>
<g mask="url(#mask0_7639_13806)">
<path fill-rule="evenodd" clip-rule="evenodd" d="M3.1665 42.4182H20.7241V24.8606H3.1665V42.4182Z" fill="#F9F4F4"/>
</g>
<path fill-rule="evenodd" clip-rule="evenodd" d="M11.9439 33.3146C11.7649 33.3146 11.6193 33.4603 11.6193 33.6392C11.6193 33.9986 12.27 33.9986 12.27 33.6392C12.27 33.4603 12.1228 33.3146 11.9439 33.3146ZM11.9439 35.6896C10.8134 35.6896 9.89502 34.7697 9.89502 33.6392C9.89502 32.5087 10.8134 31.5903 11.9439 31.5903C13.0744 31.5903 13.9943 32.5087 13.9943 33.6392C13.9943 34.7697 13.0744 35.6896 11.9439 35.6896Z" fill="#F9F4F4"/>
<path fill-rule="evenodd" clip-rule="evenodd" d="M29.8058 32.7781C30.2824 32.7781 30.6687 33.1628 30.6687 33.6394C30.6687 34.116 30.2824 34.5023 29.8058 34.5023C29.3276 34.5023 28.9429 34.116 28.9429 33.6394C28.9429 33.1628 29.3276 32.7781 29.8058 32.7781Z" fill="#F9F4F4"/>
<mask id="mask1_7639_13806" style="mask-type:luminance" maskUnits="userSpaceOnUse" x="28" y="32" width="3" height="3">
<path fill-rule="evenodd" clip-rule="evenodd" d="M28.9434 33.6387C28.9434 34.1168 29.3281 34.5032 29.8063 34.5032C30.2813 34.5032 30.6692 34.1168 30.6692 33.6387C30.6692 33.1621 30.2813 32.7773 29.8063 32.7773C29.3281 32.7773 28.9434 33.1621 28.9434 33.6387Z" fill="white"/>
</mask>
<g mask="url(#mask1_7639_13806)">
<path fill-rule="evenodd" clip-rule="evenodd" d="M21.0269 42.4182H38.586V24.8606H21.0269V42.4182Z" fill="#F9F4F4"/>
</g>
<path fill-rule="evenodd" clip-rule="evenodd" d="M29.8042 33.3146C29.6269 33.3146 29.4812 33.4602 29.4812 33.6392C29.4828 34.0017 30.132 33.9986 30.1304 33.6392C30.1304 33.4602 29.9831 33.3146 29.8042 33.3146ZM29.8042 35.6896C28.6737 35.6896 27.7554 34.7697 27.7554 33.6392C27.7554 32.5087 28.6737 31.5903 29.8042 31.5903C30.9363 31.5903 31.8562 32.5087 31.8562 33.6392C31.8562 34.7697 30.9363 35.6896 29.8042 35.6896Z" fill="#F9F4F4"/>
</svg>
