<svg width="38" height="38" viewBox="0 0 38 38" fill="none" xmlns="http://www.w3.org/2000/svg">
<mask id="mask0_7639_13811" style="mask-type:luminance" maskUnits="userSpaceOnUse" x="3" y="4" width="32" height="30">
<path fill-rule="evenodd" clip-rule="evenodd" d="M3.1665 4.75H34.8549V33.5437H3.1665V4.75Z" fill="white"/>
</mask>
<g mask="url(#mask0_7639_13811)">
<path fill-rule="evenodd" clip-rule="evenodd" d="M19.02 7.125C18.2663 7.125 17.595 7.5145 17.2181 8.16842L5.82129 28.063C5.45079 28.7122 5.45395 29.4864 5.8292 30.134C6.20445 30.7816 6.87579 31.1695 7.6247 31.1695H30.3978C31.1451 31.1695 31.8165 30.7816 32.1917 30.134C32.5685 29.4864 32.5717 28.7122 32.198 28.063L20.8218 8.16842C20.4465 7.5145 19.7752 7.125 19.02 7.125ZM30.3978 33.5445H7.6247C6.0192 33.5445 4.57995 32.7148 3.77404 31.3247C2.96812 29.9361 2.96337 28.2752 3.75979 26.8834L15.1598 6.98725C15.961 5.586 17.4034 4.75 19.02 4.75H19.0215C20.6365 4.75 22.0821 5.58758 22.8833 6.99042L34.2611 26.8834C35.0575 28.2752 35.0528 29.9361 34.2469 31.3247C33.441 32.7148 32.0017 33.5445 30.3978 33.5445Z" fill="#F9F4F4"/>
</g>
<path fill-rule="evenodd" clip-rule="evenodd" d="M19.0059 22.4264C18.3504 22.4264 17.8184 21.8944 17.8184 21.2389V16.3306C17.8184 15.6751 18.3504 15.1431 19.0059 15.1431C19.6614 15.1431 20.1934 15.6751 20.1934 16.3306V21.2389C20.1934 21.8944 19.6614 22.4264 19.0059 22.4264Z" fill="#F9F4F4"/>
<path fill-rule="evenodd" clip-rule="evenodd" d="M19.0092 27.7067C18.1336 27.7067 17.418 26.999 17.418 26.1234C17.418 25.2478 18.1194 24.54 18.9934 24.54H19.0092C19.8848 24.54 20.5926 25.2478 20.5926 26.1234C20.5926 26.999 19.8848 27.7067 19.0092 27.7067Z" fill="#F9F4F4"/>
</svg>
