<svg width="38" height="38" viewBox="0 0 38 38" fill="none" xmlns="http://www.w3.org/2000/svg">
<path fill-rule="evenodd" clip-rule="evenodd" d="M19.3968 13.4585C17.8689 13.4585 16.626 14.7014 16.626 16.2309C16.626 17.7588 17.8689 19.0002 19.3968 19.0002C20.9247 19.0002 22.1676 17.7588 22.1676 16.2309C22.1676 14.7014 20.9247 13.4585 19.3968 13.4585ZM19.3968 21.3752C16.5595 21.3752 14.251 19.0682 14.251 16.2309C14.251 13.392 16.5595 11.0835 19.3968 11.0835C22.2341 11.0835 24.5426 13.392 24.5426 16.2309C24.5426 19.0682 22.2341 21.3752 19.3968 21.3752Z" fill="#01EA01"/>
<mask id="mask0_7639_13812" style="mask-type:luminance" maskUnits="userSpaceOnUse" x="6" y="3" width="27" height="32">
<path fill-rule="evenodd" clip-rule="evenodd" d="M6.3335 3.16675H32.4577V34.0417H6.3335V3.16675Z" fill="white"/>
</mask>
<g mask="url(#mask0_7639_13812)">
<path fill-rule="evenodd" clip-rule="evenodd" d="M19.395 5.54175C13.5019 5.54175 8.70752 10.382 8.70752 16.329C8.70752 23.8957 17.6122 31.2677 19.395 31.6604C21.1779 31.2662 30.0825 23.8942 30.0825 16.329C30.0825 10.382 25.2882 5.54175 19.395 5.54175ZM19.395 34.0417C16.5545 34.0417 6.33252 25.2511 6.33252 16.329C6.33252 9.071 12.1924 3.16675 19.395 3.16675C26.5976 3.16675 32.4575 9.071 32.4575 16.329C32.4575 25.2511 22.2355 34.0417 19.395 34.0417Z" fill="#01EA01"/>
</g>
</svg>
