<svg width="38" height="38" viewBox="0 0 38 38" fill="none" xmlns="http://www.w3.org/2000/svg">
<mask id="mask0_7639_13813" style="mask-type:luminance" maskUnits="userSpaceOnUse" x="3" y="3" width="31" height="33">
<path fill-rule="evenodd" clip-rule="evenodd" d="M3.1665 3.16748H33.7009V35.9757H3.1665V3.16748Z" fill="white"/>
</mask>
<g mask="url(#mask0_7639_13813)">
<path fill-rule="evenodd" clip-rule="evenodd" d="M11.4035 27.6141C11.7661 27.6141 12.1287 27.6601 12.4833 27.7551C13.5537 28.0432 14.4831 28.7589 15.0341 29.72C15.3919 30.3232 15.5898 31.0278 15.5962 31.7466C15.5962 32.7758 16.4227 33.6007 17.4392 33.6007H19.4231C20.4348 33.6007 21.2613 32.7806 21.2661 31.7688C21.2598 30.651 21.6968 29.5886 22.4963 28.789C23.2848 28.0005 24.3868 27.5271 25.4888 27.5587C26.2108 27.5761 26.9059 27.7709 27.5187 28.1192C28.4006 28.6243 29.5263 28.3235 30.0362 27.4526L31.0875 25.6999C31.3218 25.2961 31.3899 24.7895 31.2648 24.3224C31.1413 23.8553 30.831 23.45 30.413 23.2109C29.4345 22.6472 28.7363 21.7384 28.4465 20.6491C28.1599 19.5803 28.3167 18.4134 28.8756 17.4523C29.2398 16.819 29.7733 16.2854 30.413 15.9181C31.2712 15.4161 31.572 14.2936 31.0733 13.4196C31.0527 13.3847 31.0337 13.3483 31.0178 13.3103L30.09 11.7016C29.5849 10.8229 28.4608 10.5205 27.5788 11.0224C26.6257 11.5861 25.492 11.7476 24.4027 11.461C23.3149 11.1791 22.4029 10.4904 21.8345 9.51823C21.4703 8.91023 21.2724 8.20248 21.2661 7.48206C21.2803 6.94056 21.0903 6.45448 20.7452 6.09823C20.4016 5.74356 19.9187 5.54248 19.4231 5.54248H17.4392C16.9483 5.54248 16.4892 5.73406 16.1424 6.07923C15.7973 6.42598 15.6088 6.88673 15.612 7.37756C15.5788 9.6924 13.6867 11.556 11.3956 11.556C10.6609 11.5481 9.95318 11.3501 9.33884 10.9828C8.47593 10.492 7.34859 10.7944 6.84351 11.6731L5.77159 13.4354C5.28076 14.2872 5.58159 15.413 6.45559 15.9212C7.75234 16.6717 8.56143 18.0714 8.56143 19.5724C8.56143 21.0734 7.75234 22.4715 6.45243 23.2236C5.58318 23.7271 5.28234 24.8465 5.78584 25.7173L6.78493 27.44C7.03193 27.8849 7.43568 28.2063 7.90276 28.3377C8.36826 28.4676 8.88126 28.4121 9.30876 28.1746C9.93734 27.8057 10.6688 27.6141 11.4035 27.6141ZM19.4231 35.9757H17.4392C15.1133 35.9757 13.2212 34.0852 13.2212 31.7593C13.218 31.4727 13.1357 31.1751 12.9821 30.917C12.7335 30.4831 12.3313 30.1728 11.8674 30.0493C11.4067 29.9258 10.9016 29.9939 10.4868 30.2346C9.49243 30.7887 8.32234 30.9233 7.25201 30.6225C6.18326 30.3201 5.26018 29.5854 4.71868 28.6116L3.72909 26.9064C2.57168 24.8987 3.26043 22.3258 5.26493 21.1668C5.83334 20.8391 6.18643 20.2279 6.18643 19.5724C6.18643 18.9169 5.83334 18.3041 5.26493 17.9764C3.25884 16.8111 2.57168 14.2318 3.72751 12.2241L4.80101 10.4619C5.94259 8.4764 8.52343 7.77656 10.5358 8.9324C10.8098 9.09548 11.1074 9.17781 11.4098 9.18098C12.3963 9.18098 13.2212 8.36715 13.237 7.36648C13.2307 6.2629 13.6661 5.20365 14.4593 4.40406C15.2558 3.60606 16.3134 3.16748 17.4392 3.16748H19.4231C20.5568 3.16748 21.6588 3.63298 22.4488 4.44206C23.2373 5.2559 23.6728 6.37215 23.6395 7.50423C23.6427 7.75915 23.7266 8.05365 23.8786 8.31173C24.1303 8.73923 24.5278 9.04006 24.9996 9.16356C25.4714 9.28073 25.9654 9.2174 26.385 8.96881C28.4117 7.8114 30.9909 8.5049 32.1483 10.5157L33.1348 12.2241C33.1601 12.2701 33.1823 12.3144 33.2013 12.3603C34.2494 14.3411 33.5496 16.8348 31.6021 17.9732C31.3187 18.1363 31.0891 18.3643 30.9308 18.6398C30.6853 19.0657 30.6173 19.5724 30.7408 20.0379C30.8674 20.5129 31.1698 20.9071 31.5958 21.151C32.5568 21.7036 33.2741 22.6346 33.5607 23.7096C33.8473 24.7831 33.6905 25.9485 33.1316 26.9096L32.0803 28.6607C30.9228 30.6494 28.3436 31.3381 26.3375 30.1791C26.0699 30.0256 25.7612 29.9416 25.454 29.9337H25.4445C24.9869 29.9337 24.5167 30.1285 24.1747 30.4689C23.8279 30.8156 23.6379 31.278 23.6411 31.7688C23.63 34.0947 21.7379 35.9757 19.4231 35.9757Z" fill="#F9F4F4"/>
</g>
<path fill-rule="evenodd" clip-rule="evenodd" d="M18.4378 16.5847C16.7912 16.5847 15.4517 17.9258 15.4517 19.5725C15.4517 21.2191 16.7912 22.5571 18.4378 22.5571C20.0845 22.5571 21.424 21.2191 21.424 19.5725C21.424 17.9258 20.0845 16.5847 18.4378 16.5847ZM18.4378 24.9321C15.4817 24.9321 13.0767 22.5286 13.0767 19.5725C13.0767 16.6164 15.4817 14.2097 18.4378 14.2097C21.3939 14.2097 23.799 16.6164 23.799 19.5725C23.799 22.5286 21.3939 24.9321 18.4378 24.9321Z" fill="#F9F4F4"/>
</svg>
